<svg width="1438" height="830" viewBox="0 0 1438 830" fill="none" xmlns="http://www.w3.org/2000/svg">
<g filter="url(#filter0_d_401_1194)">
<circle cx="649.02" cy="558.538" r="54.0221" fill="#7796FF"/>
</g>
<path d="M641.949 569.145L655.384 555.71L655.384 567.377C655.384 568.791 656.444 569.852 657.858 569.852C659.273 569.852 660.333 568.791 660.333 567.377L660.333 549.699C660.333 548.285 659.273 547.224 657.858 547.224L640.181 547.224C638.767 547.224 637.706 548.285 637.706 549.699C637.706 551.113 638.767 552.174 640.181 552.174L651.848 552.174L638.413 565.609C637.352 566.67 637.352 568.084 638.413 569.145C639.297 570.029 640.888 570.205 641.949 569.145Z" fill="white"/>
<g filter="url(#filter1_d_401_1194)">
<path fill-rule="evenodd" clip-rule="evenodd" d="M211.163 162.56C183.549 162.56 161.163 184.946 161.163 212.56V562.56C161.163 590.175 183.549 612.56 211.163 612.56H597.066C584.759 599.2 577.243 581.358 577.243 561.761C577.243 520.34 610.821 486.761 652.243 486.761C671.84 486.761 689.681 494.277 703.042 506.584V212.56C703.042 184.946 680.656 162.56 653.042 162.56H211.163Z" fill="#2563EB"/>
</g>
<path d="M233.055 261.254V284.774C233.055 288.038 232.111 290.582 230.223 292.406C228.335 294.198 225.807 295.094 222.639 295.094C219.439 295.094 216.847 294.166 214.863 292.31C212.911 290.454 211.935 287.862 211.935 284.534H218.655C218.687 285.974 219.023 287.094 219.663 287.894C220.335 288.694 221.295 289.094 222.543 289.094C223.759 289.094 224.687 288.71 225.327 287.942C225.967 287.174 226.287 286.118 226.287 284.774V261.254H233.055ZM250.782 295.19C248.222 295.19 245.918 294.63 243.87 293.51C241.822 292.358 240.206 290.742 239.022 288.662C237.87 286.582 237.294 284.182 237.294 281.462C237.294 278.742 237.886 276.342 239.07 274.262C240.286 272.182 241.934 270.582 244.014 269.462C246.094 268.31 248.414 267.734 250.974 267.734C253.534 267.734 255.854 268.31 257.934 269.462C260.014 270.582 261.646 272.182 262.83 274.262C264.046 276.342 264.654 278.742 264.654 281.462C264.654 284.182 264.03 286.582 262.782 288.662C261.566 290.742 259.902 292.358 257.79 293.51C255.71 294.63 253.374 295.19 250.782 295.19ZM250.782 289.334C251.998 289.334 253.134 289.046 254.19 288.47C255.278 287.862 256.142 286.966 256.782 285.782C257.422 284.598 257.742 283.158 257.742 281.462C257.742 278.934 257.07 276.998 255.726 275.654C254.414 274.278 252.798 273.59 250.878 273.59C248.958 273.59 247.342 274.278 246.03 275.654C244.75 276.998 244.11 278.934 244.11 281.462C244.11 283.99 244.734 285.942 245.982 287.318C247.262 288.662 248.862 289.334 250.782 289.334ZM271.072 264.998C269.888 264.998 268.896 264.63 268.096 263.894C267.328 263.126 266.944 262.182 266.944 261.062C266.944 259.942 267.328 259.014 268.096 258.278C268.896 257.51 269.888 257.126 271.072 257.126C272.256 257.126 273.232 257.51 274 258.278C274.8 259.014 275.2 259.942 275.2 261.062C275.2 262.182 274.8 263.126 274 263.894C273.232 264.63 272.256 264.998 271.072 264.998ZM274.384 268.166V294.758H267.664V268.166H274.384ZM293.839 267.782C297.007 267.782 299.567 268.79 301.519 270.806C303.471 272.79 304.447 275.574 304.447 279.158V294.758H297.727V280.07C297.727 277.958 297.199 276.342 296.143 275.222C295.087 274.07 293.647 273.494 291.823 273.494C289.967 273.494 288.495 274.07 287.407 275.222C286.351 276.342 285.823 277.958 285.823 280.07V294.758H279.103V268.166H285.823V271.478C286.719 270.326 287.855 269.43 289.231 268.79C290.639 268.118 292.175 267.782 293.839 267.782ZM330.243 295.19C327.683 295.19 325.379 294.63 323.331 293.51C321.283 292.358 319.667 290.742 318.483 288.662C317.331 286.582 316.755 284.182 316.755 281.462C316.755 278.742 317.347 276.342 318.531 274.262C319.747 272.182 321.395 270.582 323.475 269.462C325.555 268.31 327.875 267.734 330.435 267.734C332.995 267.734 335.315 268.31 337.395 269.462C339.475 270.582 341.107 272.182 342.291 274.262C343.507 276.342 344.115 278.742 344.115 281.462C344.115 284.182 343.491 286.582 342.243 288.662C341.027 290.742 339.363 292.358 337.251 293.51C335.171 294.63 332.835 295.19 330.243 295.19ZM330.243 289.334C331.459 289.334 332.595 289.046 333.651 288.47C334.739 287.862 335.603 286.966 336.243 285.782C336.883 284.598 337.203 283.158 337.203 281.462C337.203 278.934 336.531 276.998 335.187 275.654C333.875 274.278 332.259 273.59 330.339 273.59C328.419 273.59 326.803 274.278 325.491 275.654C324.211 276.998 323.571 278.934 323.571 281.462C323.571 283.99 324.195 285.942 325.443 287.318C326.723 288.662 328.323 289.334 330.243 289.334ZM372.228 268.166V294.758H365.46V291.398C364.596 292.55 363.46 293.462 362.052 294.134C360.676 294.774 359.172 295.094 357.54 295.094C355.46 295.094 353.62 294.662 352.02 293.798C350.42 292.902 349.156 291.606 348.228 289.91C347.332 288.182 346.884 286.134 346.884 283.766V268.166H353.604V282.806C353.604 284.918 354.132 286.55 355.188 287.702C356.244 288.822 357.684 289.382 359.508 289.382C361.364 289.382 362.82 288.822 363.876 287.702C364.932 286.55 365.46 284.918 365.46 282.806V268.166H372.228ZM383.659 272.294C384.523 270.886 385.643 269.782 387.019 268.982C388.427 268.182 390.027 267.782 391.819 267.782V274.838H390.043C387.931 274.838 386.331 275.334 385.243 276.326C384.187 277.318 383.659 279.046 383.659 281.51V294.758H376.939V268.166H383.659V272.294ZM211.791 350.462C211.791 347.71 212.351 345.31 213.471 343.262C214.591 341.182 216.143 339.582 218.127 338.462C220.111 337.31 222.383 336.734 224.943 336.734C228.239 336.734 230.959 337.566 233.103 339.23C235.279 340.862 236.735 343.166 237.471 346.142H230.223C229.839 344.99 229.183 344.094 228.255 343.454C227.359 342.782 226.239 342.446 224.895 342.446C222.975 342.446 221.455 343.15 220.335 344.558C219.215 345.934 218.655 347.902 218.655 350.462C218.655 352.99 219.215 354.958 220.335 356.366C221.455 357.742 222.975 358.43 224.895 358.43C227.615 358.43 229.391 357.214 230.223 354.782H237.471C236.735 357.662 235.279 359.95 233.103 361.646C230.927 363.342 228.207 364.19 224.943 364.19C222.383 364.19 220.111 363.63 218.127 362.51C216.143 361.358 214.591 359.758 213.471 357.71C212.351 355.63 211.791 353.214 211.791 350.462ZM252.282 364.19C249.722 364.19 247.418 363.63 245.37 362.51C243.322 361.358 241.706 359.742 240.522 357.662C239.37 355.582 238.794 353.182 238.794 350.462C238.794 347.742 239.386 345.342 240.57 343.262C241.786 341.182 243.434 339.582 245.514 338.462C247.594 337.31 249.914 336.734 252.474 336.734C255.034 336.734 257.354 337.31 259.434 338.462C261.514 339.582 263.146 341.182 264.33 343.262C265.546 345.342 266.154 347.742 266.154 350.462C266.154 353.182 265.53 355.582 264.282 357.662C263.066 359.742 261.402 361.358 259.29 362.51C257.21 363.63 254.874 364.19 252.282 364.19ZM252.282 358.334C253.498 358.334 254.634 358.046 255.69 357.47C256.778 356.862 257.642 355.966 258.282 354.782C258.922 353.598 259.242 352.158 259.242 350.462C259.242 347.934 258.57 345.998 257.226 344.654C255.914 343.278 254.298 342.59 252.378 342.59C250.458 342.59 248.842 343.278 247.53 344.654C246.25 345.998 245.61 347.934 245.61 350.462C245.61 352.99 246.234 354.942 247.482 356.318C248.762 357.662 250.362 358.334 252.282 358.334ZM302.188 336.782C305.452 336.782 308.076 337.79 310.06 339.806C312.076 341.79 313.084 344.574 313.084 348.158V363.758H306.364V349.07C306.364 346.99 305.836 345.406 304.78 344.318C303.724 343.198 302.284 342.638 300.46 342.638C298.636 342.638 297.18 343.198 296.092 344.318C295.036 345.406 294.508 346.99 294.508 349.07V363.758H287.788V349.07C287.788 346.99 287.26 345.406 286.204 344.318C285.148 343.198 283.708 342.638 281.884 342.638C280.028 342.638 278.556 343.198 277.468 344.318C276.412 345.406 275.884 346.99 275.884 349.07V363.758H269.164V337.166H275.884V340.382C276.748 339.262 277.852 338.382 279.196 337.742C280.572 337.102 282.076 336.782 283.708 336.782C285.788 336.782 287.644 337.23 289.276 338.126C290.908 338.99 292.172 340.238 293.068 341.87C293.932 340.334 295.18 339.102 296.812 338.174C298.476 337.246 300.268 336.782 302.188 336.782ZM350.565 336.782C353.829 336.782 356.453 337.79 358.437 339.806C360.453 341.79 361.461 344.574 361.461 348.158V363.758H354.741V349.07C354.741 346.99 354.213 345.406 353.157 344.318C352.101 343.198 350.661 342.638 348.837 342.638C347.013 342.638 345.557 343.198 344.469 344.318C343.413 345.406 342.885 346.99 342.885 349.07V363.758H336.165V349.07C336.165 346.99 335.637 345.406 334.581 344.318C333.525 343.198 332.085 342.638 330.261 342.638C328.405 342.638 326.933 343.198 325.845 344.318C324.789 345.406 324.261 346.99 324.261 349.07V363.758H317.541V337.166H324.261V340.382C325.125 339.262 326.229 338.382 327.573 337.742C328.949 337.102 330.453 336.782 332.085 336.782C334.165 336.782 336.021 337.23 337.653 338.126C339.285 338.99 340.549 340.238 341.445 341.87C342.309 340.334 343.557 339.102 345.189 338.174C346.853 337.246 348.645 336.782 350.565 336.782ZM391.021 337.166V363.758H384.253V360.398C383.389 361.55 382.253 362.462 380.845 363.134C379.469 363.774 377.965 364.094 376.333 364.094C374.253 364.094 372.413 363.662 370.813 362.798C369.213 361.902 367.949 360.606 367.021 358.91C366.125 357.182 365.677 355.134 365.677 352.766V337.166H372.397V351.806C372.397 353.918 372.925 355.55 373.981 356.702C375.037 357.822 376.477 358.382 378.301 358.382C380.157 358.382 381.613 357.822 382.669 356.702C383.725 355.55 384.253 353.918 384.253 351.806V337.166H391.021ZM410.468 336.782C413.636 336.782 416.196 337.79 418.148 339.806C420.1 341.79 421.076 344.574 421.076 348.158V363.758H414.356V349.07C414.356 346.958 413.828 345.342 412.772 344.222C411.716 343.07 410.276 342.494 408.452 342.494C406.596 342.494 405.124 343.07 404.036 344.222C402.98 345.342 402.452 346.958 402.452 349.07V363.758H395.732V337.166H402.452V340.478C403.348 339.326 404.484 338.43 405.86 337.79C407.268 337.118 408.804 336.782 410.468 336.782ZM428.954 333.998C427.77 333.998 426.778 333.63 425.978 332.894C425.21 332.126 424.826 331.182 424.826 330.062C424.826 328.942 425.21 328.014 425.978 327.278C426.778 326.51 427.77 326.126 428.954 326.126C430.138 326.126 431.114 326.51 431.882 327.278C432.682 328.014 433.082 328.942 433.082 330.062C433.082 331.182 432.682 332.126 431.882 332.894C431.114 333.63 430.138 333.998 428.954 333.998ZM432.266 337.166V363.758H425.546V337.166H432.266ZM444.81 342.686V355.55C444.81 356.446 445.018 357.102 445.434 357.518C445.882 357.902 446.618 358.094 447.642 358.094H450.762V363.758H446.538C440.874 363.758 438.042 361.006 438.042 355.502V342.686H434.874V337.166H438.042V330.59H444.81V337.166H450.762V342.686H444.81ZM479.115 337.166L462.651 376.334H455.499L461.259 363.086L450.603 337.166H458.139L465.003 355.742L471.963 337.166H479.115ZM225.327 433.19C222.767 433.19 220.463 432.63 218.415 431.51C216.367 430.358 214.751 428.742 213.567 426.662C212.415 424.582 211.839 422.182 211.839 419.462C211.839 416.742 212.431 414.342 213.615 412.262C214.831 410.182 216.479 408.582 218.559 407.462C220.639 406.31 222.959 405.734 225.519 405.734C228.079 405.734 230.399 406.31 232.479 407.462C234.559 408.582 236.191 410.182 237.375 412.262C238.591 414.342 239.199 416.742 239.199 419.462C239.199 422.182 238.575 424.582 237.327 426.662C236.111 428.742 234.447 430.358 232.335 431.51C230.255 432.63 227.919 433.19 225.327 433.19ZM225.327 427.334C226.543 427.334 227.679 427.046 228.735 426.47C229.823 425.862 230.687 424.966 231.327 423.782C231.967 422.598 232.287 421.158 232.287 419.462C232.287 416.934 231.615 414.998 230.271 413.654C228.959 412.278 227.343 411.59 225.423 411.59C223.503 411.59 221.887 412.278 220.575 413.654C219.295 414.998 218.655 416.934 218.655 419.462C218.655 421.99 219.279 423.942 220.527 425.318C221.807 426.662 223.407 427.334 225.327 427.334ZM256.945 405.782C260.113 405.782 262.673 406.79 264.625 408.806C266.577 410.79 267.553 413.574 267.553 417.158V432.758H260.833V418.07C260.833 415.958 260.305 414.342 259.249 413.222C258.193 412.07 256.753 411.494 254.929 411.494C253.073 411.494 251.601 412.07 250.513 413.222C249.457 414.342 248.929 415.958 248.929 418.07V432.758H242.209V406.166H248.929V409.478C249.825 408.326 250.961 407.43 252.337 406.79C253.745 406.118 255.281 405.782 256.945 405.782ZM279.813 419.462C279.813 416.71 280.373 414.31 281.493 412.262C282.613 410.182 284.165 408.582 286.149 407.462C288.133 406.31 290.405 405.734 292.965 405.734C296.261 405.734 298.981 406.566 301.125 408.23C303.301 409.862 304.757 412.166 305.493 415.142H298.245C297.861 413.99 297.205 413.094 296.277 412.454C295.381 411.782 294.261 411.446 292.917 411.446C290.997 411.446 289.477 412.15 288.357 413.558C287.237 414.934 286.677 416.902 286.677 419.462C286.677 421.99 287.237 423.958 288.357 425.366C289.477 426.742 290.997 427.43 292.917 427.43C295.637 427.43 297.413 426.214 298.245 423.782H305.493C304.757 426.662 303.301 428.95 301.125 430.646C298.949 432.342 296.229 433.19 292.965 433.19C290.405 433.19 288.133 432.63 286.149 431.51C284.165 430.358 282.613 428.758 281.493 426.71C280.373 424.63 279.813 422.214 279.813 419.462ZM306.768 419.366C306.768 416.678 307.296 414.294 308.352 412.214C309.44 410.134 310.896 408.534 312.72 407.414C314.576 406.294 316.64 405.734 318.912 405.734C320.896 405.734 322.624 406.134 324.096 406.934C325.6 407.734 326.8 408.742 327.696 409.958V406.166H334.464V432.758H327.696V428.87C326.832 430.118 325.632 431.158 324.096 431.99C322.592 432.79 320.848 433.19 318.864 433.19C316.624 433.19 314.576 432.614 312.72 431.462C310.896 430.31 309.44 428.694 308.352 426.614C307.296 424.502 306.768 422.086 306.768 419.366ZM327.696 419.462C327.696 417.83 327.376 416.438 326.736 415.286C326.096 414.102 325.232 413.206 324.144 412.598C323.056 411.958 321.888 411.638 320.64 411.638C319.392 411.638 318.24 411.942 317.184 412.55C316.128 413.158 315.264 414.054 314.592 415.238C313.952 416.39 313.632 417.766 313.632 419.366C313.632 420.966 313.952 422.374 314.592 423.59C315.264 424.774 316.128 425.686 317.184 426.326C318.272 426.966 319.424 427.286 320.64 427.286C321.888 427.286 323.056 426.982 324.144 426.374C325.232 425.734 326.096 424.838 326.736 423.686C327.376 422.502 327.696 421.094 327.696 419.462ZM351.299 411.686H346.643V432.758H339.827V411.686H336.803V406.166H339.827V404.822C339.827 401.558 340.755 399.158 342.611 397.622C344.467 396.086 347.267 395.366 351.011 395.462V401.126C349.379 401.094 348.243 401.366 347.603 401.942C346.963 402.518 346.643 403.558 346.643 405.062V406.166H351.299V411.686ZM378.454 418.886C378.454 419.846 378.39 420.71 378.262 421.478H358.822C358.982 423.398 359.654 424.902 360.838 425.99C362.022 427.078 363.478 427.622 365.206 427.622C367.702 427.622 369.478 426.55 370.534 424.406H377.782C377.014 426.966 375.542 429.078 373.366 430.742C371.19 432.374 368.518 433.19 365.35 433.19C362.79 433.19 360.486 432.63 358.438 431.51C356.422 430.358 354.838 428.742 353.686 426.662C352.566 424.582 352.006 422.182 352.006 419.462C352.006 416.71 352.566 414.294 353.686 412.214C354.806 410.134 356.374 408.534 358.39 407.414C360.406 406.294 362.726 405.734 365.35 405.734C367.878 405.734 370.134 406.278 372.118 407.366C374.134 408.454 375.686 410.006 376.774 412.022C377.894 414.006 378.454 416.294 378.454 418.886ZM371.494 416.966C371.462 415.238 370.838 413.862 369.622 412.838C368.406 411.782 366.918 411.254 365.158 411.254C363.494 411.254 362.086 411.766 360.934 412.79C359.814 413.782 359.126 415.174 358.87 416.966H371.494ZM396.415 405.782C398.431 405.782 400.223 406.23 401.791 407.126C403.359 407.99 404.575 409.286 405.439 411.014C406.335 412.71 406.783 414.758 406.783 417.158V432.758H400.063V418.07C400.063 415.958 399.535 414.342 398.479 413.222C397.423 412.07 395.983 411.494 394.159 411.494C392.303 411.494 390.831 412.07 389.743 413.222C388.687 414.342 388.159 415.958 388.159 418.07V432.758H381.439V397.238H388.159V409.478C389.023 408.326 390.175 407.43 391.615 406.79C393.055 406.118 394.655 405.782 396.415 405.782ZM436.357 406.166V432.758H429.589V429.398C428.725 430.55 427.589 431.462 426.181 432.134C424.805 432.774 423.301 433.094 421.669 433.094C419.589 433.094 417.749 432.662 416.149 431.798C414.549 430.902 413.285 429.606 412.357 427.91C411.461 426.182 411.013 424.134 411.013 421.766V406.166H417.733V420.806C417.733 422.918 418.261 424.55 419.317 425.702C420.373 426.822 421.813 427.382 423.637 427.382C425.493 427.382 426.949 426.822 428.005 425.702C429.061 424.55 429.589 422.918 429.589 420.806V406.166H436.357ZM447.787 410.054C448.651 408.774 449.835 407.734 451.339 406.934C452.875 406.134 454.619 405.734 456.571 405.734C458.843 405.734 460.891 406.294 462.715 407.414C464.571 408.534 466.027 410.134 467.083 412.214C468.171 414.262 468.715 416.646 468.715 419.366C468.715 422.086 468.171 424.502 467.083 426.614C466.027 428.694 464.571 430.31 462.715 431.462C460.891 432.614 458.843 433.19 456.571 433.19C454.587 433.19 452.843 432.806 451.339 432.038C449.867 431.238 448.683 430.214 447.787 428.966V432.758H441.067V397.238H447.787V410.054ZM461.851 419.366C461.851 417.766 461.515 416.39 460.843 415.238C460.203 414.054 459.339 413.158 458.251 412.55C457.195 411.942 456.043 411.638 454.795 411.638C453.579 411.638 452.427 411.958 451.339 412.598C450.283 413.206 449.419 414.102 448.747 415.286C448.107 416.47 447.787 417.862 447.787 419.462C447.787 421.062 448.107 422.454 448.747 423.638C449.419 424.822 450.283 425.734 451.339 426.374C452.427 426.982 453.579 427.286 454.795 427.286C456.043 427.286 457.195 426.966 458.251 426.326C459.339 425.686 460.203 424.774 460.843 423.59C461.515 422.406 461.851 420.998 461.851 419.366Z" fill="white"/>
<g filter="url(#filter2_d_401_1194)">
<circle cx="1224.8" cy="558.538" r="54.0221" fill="#7796FF"/>
</g>
<path d="M1217.73 569.145L1231.16 555.71L1231.16 567.377C1231.16 568.791 1232.22 569.852 1233.64 569.852C1235.05 569.852 1236.11 568.791 1236.11 567.377L1236.11 549.699C1236.11 548.285 1235.05 547.224 1233.64 547.224L1215.96 547.224C1214.54 547.224 1213.48 548.285 1213.48 549.699C1213.48 551.113 1214.54 552.174 1215.96 552.174L1227.62 552.174L1214.19 565.609C1213.13 566.67 1213.13 568.084 1214.19 569.145C1215.07 570.029 1216.66 570.205 1217.73 569.145Z" fill="white"/>
<g filter="url(#filter3_d_401_1194)">
<path fill-rule="evenodd" clip-rule="evenodd" d="M786.94 162.56C759.326 162.56 736.94 184.946 736.94 212.56V562.56C736.94 590.175 759.326 612.56 786.94 612.56H1172.84C1160.54 599.2 1153.02 581.358 1153.02 561.761C1153.02 520.34 1186.6 486.761 1228.02 486.761C1247.62 486.761 1265.46 494.277 1278.82 506.584V212.56C1278.82 184.946 1256.43 162.56 1228.82 162.56H786.94Z" fill="#2563EB"/>
</g>
<path d="M796.016 266.678V275.078H807.296V280.406H796.016V289.286H808.736V294.758H789.296V261.206H808.736V266.678H796.016ZM827.611 294.758L822.139 286.502L817.291 294.758H810.091L818.779 281.414L809.995 268.166H817.579L823.003 276.374L827.899 268.166H835.099L826.363 281.414L835.195 294.758H827.611ZM843.645 272.006C844.509 270.79 845.693 269.782 847.197 268.982C848.733 268.15 850.477 267.734 852.429 267.734C854.701 267.734 856.749 268.294 858.573 269.414C860.429 270.534 861.885 272.134 862.941 274.214C864.029 276.262 864.573 278.646 864.573 281.366C864.573 284.086 864.029 286.502 862.941 288.614C861.885 290.694 860.429 292.31 858.573 293.462C856.749 294.614 854.701 295.19 852.429 295.19C850.477 295.19 848.749 294.79 847.245 293.99C845.773 293.19 844.573 292.182 843.645 290.966V307.43H836.925V268.166H843.645V272.006ZM857.709 281.366C857.709 279.766 857.373 278.39 856.701 277.238C856.061 276.054 855.197 275.158 854.109 274.55C853.053 273.942 851.901 273.638 850.653 273.638C849.437 273.638 848.285 273.958 847.197 274.598C846.141 275.206 845.277 276.102 844.605 277.286C843.965 278.47 843.645 279.862 843.645 281.462C843.645 283.062 843.965 284.454 844.605 285.638C845.277 286.822 846.141 287.734 847.197 288.374C848.285 288.982 849.437 289.286 850.653 289.286C851.901 289.286 853.053 288.966 854.109 288.326C855.197 287.686 856.061 286.774 856.701 285.59C857.373 284.406 857.709 282.998 857.709 281.366ZM874.256 259.238V294.758H867.536V259.238H874.256ZM890.784 295.19C888.224 295.19 885.92 294.63 883.872 293.51C881.824 292.358 880.208 290.742 879.024 288.662C877.872 286.582 877.296 284.182 877.296 281.462C877.296 278.742 877.888 276.342 879.072 274.262C880.288 272.182 881.936 270.582 884.016 269.462C886.096 268.31 888.416 267.734 890.976 267.734C893.536 267.734 895.856 268.31 897.936 269.462C900.016 270.582 901.648 272.182 902.832 274.262C904.048 276.342 904.656 278.742 904.656 281.462C904.656 284.182 904.032 286.582 902.784 288.662C901.568 290.742 899.904 292.358 897.792 293.51C895.712 294.63 893.376 295.19 890.784 295.19ZM890.784 289.334C892 289.334 893.136 289.046 894.192 288.47C895.28 287.862 896.144 286.966 896.784 285.782C897.424 284.598 897.744 283.158 897.744 281.462C897.744 278.934 897.072 276.998 895.728 275.654C894.416 274.278 892.8 273.59 890.88 273.59C888.96 273.59 887.344 274.278 886.032 275.654C884.752 276.998 884.112 278.934 884.112 281.462C884.112 283.99 884.736 285.942 885.984 287.318C887.264 288.662 888.864 289.334 890.784 289.334ZM914.385 272.294C915.249 270.886 916.369 269.782 917.745 268.982C919.153 268.182 920.753 267.782 922.545 267.782V274.838H920.769C918.657 274.838 917.057 275.334 915.969 276.326C914.913 277.318 914.385 279.046 914.385 281.51V294.758H907.665V268.166H914.385V272.294ZM949.871 280.886C949.871 281.846 949.807 282.71 949.679 283.478H930.239C930.399 285.398 931.071 286.902 932.255 287.99C933.439 289.078 934.895 289.622 936.623 289.622C939.119 289.622 940.895 288.55 941.951 286.406H949.199C948.431 288.966 946.959 291.078 944.783 292.742C942.607 294.374 939.935 295.19 936.767 295.19C934.207 295.19 931.903 294.63 929.855 293.51C927.839 292.358 926.255 290.742 925.103 288.662C923.983 286.582 923.423 284.182 923.423 281.462C923.423 278.71 923.983 276.294 925.103 274.214C926.223 272.134 927.791 270.534 929.807 269.414C931.823 268.294 934.143 267.734 936.767 267.734C939.295 267.734 941.551 268.278 943.535 269.366C945.551 270.454 947.103 272.006 948.191 274.022C949.311 276.006 949.871 278.294 949.871 280.886ZM942.911 278.966C942.879 277.238 942.255 275.862 941.039 274.838C939.823 273.782 938.335 273.254 936.575 273.254C934.911 273.254 933.503 273.766 932.351 274.79C931.231 275.782 930.543 277.174 930.287 278.966H942.911ZM977.11 267.782C980.278 267.782 982.838 268.79 984.79 270.806C986.742 272.79 987.718 275.574 987.718 279.158V294.758H980.998V280.07C980.998 277.958 980.47 276.342 979.414 275.222C978.358 274.07 976.918 273.494 975.094 273.494C973.238 273.494 971.766 274.07 970.678 275.222C969.622 276.342 969.094 277.958 969.094 280.07V294.758H962.374V268.166H969.094V271.478C969.99 270.326 971.126 269.43 972.502 268.79C973.91 268.118 975.446 267.782 977.11 267.782ZM1016.91 280.886C1016.91 281.846 1016.84 282.71 1016.72 283.478H997.276C997.436 285.398 998.108 286.902 999.292 287.99C1000.48 289.078 1001.93 289.622 1003.66 289.622C1006.16 289.622 1007.93 288.55 1008.99 286.406H1016.24C1015.47 288.966 1014 291.078 1011.82 292.742C1009.64 294.374 1006.97 295.19 1003.8 295.19C1001.24 295.19 998.94 294.63 996.892 293.51C994.876 292.358 993.292 290.742 992.14 288.662C991.02 286.582 990.46 284.182 990.46 281.462C990.46 278.71 991.02 276.294 992.14 274.214C993.26 272.134 994.828 270.534 996.844 269.414C998.86 268.294 1001.18 267.734 1003.8 267.734C1006.33 267.734 1008.59 268.278 1010.57 269.366C1012.59 270.454 1014.14 272.006 1015.23 274.022C1016.35 276.006 1016.91 278.294 1016.91 280.886ZM1009.95 278.966C1009.92 277.238 1009.29 275.862 1008.08 274.838C1006.86 273.782 1005.37 273.254 1003.61 273.254C1001.95 273.254 1000.54 273.766 999.388 274.79C998.268 275.782 997.58 277.174 997.324 278.966H1009.95ZM1056.76 268.166L1048.98 294.758H1041.73L1036.89 276.182L1032.04 294.758H1024.74L1016.92 268.166H1023.73L1028.44 288.422L1033.53 268.166H1040.63L1045.62 288.374L1050.33 268.166H1056.76ZM796.016 341.006C796.88 339.79 798.064 338.782 799.568 337.982C801.104 337.15 802.848 336.734 804.8 336.734C807.072 336.734 809.12 337.294 810.944 338.414C812.8 339.534 814.256 341.134 815.312 343.214C816.4 345.262 816.944 347.646 816.944 350.366C816.944 353.086 816.4 355.502 815.312 357.614C814.256 359.694 812.8 361.31 810.944 362.462C809.12 363.614 807.072 364.19 804.8 364.19C802.848 364.19 801.12 363.79 799.616 362.99C798.144 362.19 796.944 361.182 796.016 359.966V376.43H789.296V337.166H796.016V341.006ZM810.08 350.366C810.08 348.766 809.744 347.39 809.072 346.238C808.432 345.054 807.568 344.158 806.48 343.55C805.424 342.942 804.272 342.638 803.024 342.638C801.808 342.638 800.656 342.958 799.568 343.598C798.512 344.206 797.648 345.102 796.976 346.286C796.336 347.47 796.016 348.862 796.016 350.462C796.016 352.062 796.336 353.454 796.976 354.638C797.648 355.822 798.512 356.734 799.568 357.374C800.656 357.982 801.808 358.286 803.024 358.286C804.272 358.286 805.424 357.966 806.48 357.326C807.568 356.686 808.432 355.774 809.072 354.59C809.744 353.406 810.08 351.998 810.08 350.366ZM826.628 328.238V363.758H819.908V328.238H826.628ZM829.619 350.366C829.619 347.678 830.147 345.294 831.203 343.214C832.291 341.134 833.747 339.534 835.571 338.414C837.427 337.294 839.491 336.734 841.763 336.734C843.747 336.734 845.475 337.134 846.947 337.934C848.451 338.734 849.651 339.742 850.547 340.958V337.166H857.315V363.758H850.547V359.87C849.683 361.118 848.483 362.158 846.947 362.99C845.443 363.79 843.699 364.19 841.715 364.19C839.475 364.19 837.427 363.614 835.571 362.462C833.747 361.31 832.291 359.694 831.203 357.614C830.147 355.502 829.619 353.086 829.619 350.366ZM850.547 350.462C850.547 348.83 850.227 347.438 849.587 346.286C848.947 345.102 848.083 344.206 846.995 343.598C845.907 342.958 844.739 342.638 843.491 342.638C842.243 342.638 841.091 342.942 840.035 343.55C838.979 344.158 838.115 345.054 837.443 346.238C836.803 347.39 836.483 348.766 836.483 350.366C836.483 351.966 836.803 353.374 837.443 354.59C838.115 355.774 838.979 356.686 840.035 357.326C841.123 357.966 842.275 358.286 843.491 358.286C844.739 358.286 845.907 357.982 846.995 357.374C848.083 356.734 848.947 355.838 849.587 354.686C850.227 353.502 850.547 352.094 850.547 350.462ZM860.23 350.462C860.23 347.71 860.79 345.31 861.91 343.262C863.03 341.182 864.582 339.582 866.566 338.462C868.55 337.31 870.822 336.734 873.382 336.734C876.678 336.734 879.398 337.566 881.542 339.23C883.718 340.862 885.174 343.166 885.91 346.142H878.662C878.278 344.99 877.622 344.094 876.694 343.454C875.798 342.782 874.678 342.446 873.334 342.446C871.414 342.446 869.894 343.15 868.774 344.558C867.654 345.934 867.094 347.902 867.094 350.462C867.094 352.99 867.654 354.958 868.774 356.366C869.894 357.742 871.414 358.43 873.334 358.43C876.054 358.43 877.83 357.214 878.662 354.782H885.91C885.174 357.662 883.718 359.95 881.542 361.646C879.366 363.342 876.646 364.19 873.382 364.19C870.822 364.19 868.55 363.63 866.566 362.51C864.582 361.358 863.03 359.758 861.91 357.71C860.79 355.63 860.23 353.214 860.23 350.462ZM913.633 349.886C913.633 350.846 913.569 351.71 913.441 352.478H894.001C894.161 354.398 894.833 355.902 896.017 356.99C897.201 358.078 898.657 358.622 900.385 358.622C902.881 358.622 904.657 357.55 905.713 355.406H912.961C912.193 357.966 910.721 360.078 908.545 361.742C906.369 363.374 903.697 364.19 900.529 364.19C897.969 364.19 895.665 363.63 893.617 362.51C891.601 361.358 890.017 359.742 888.865 357.662C887.745 355.582 887.185 353.182 887.185 350.462C887.185 347.71 887.745 345.294 888.865 343.214C889.985 341.134 891.553 339.534 893.569 338.414C895.585 337.294 897.905 336.734 900.529 336.734C903.057 336.734 905.313 337.278 907.297 338.366C909.313 339.454 910.865 341.006 911.953 343.022C913.073 345.006 913.633 347.294 913.633 349.886ZM906.673 347.966C906.641 346.238 906.017 344.862 904.801 343.838C903.585 342.782 902.097 342.254 900.337 342.254C898.673 342.254 897.265 342.766 896.113 343.79C894.993 344.782 894.305 346.174 894.049 347.966H906.673ZM926.794 364.19C924.618 364.19 922.666 363.806 920.938 363.038C919.21 362.238 917.834 361.166 916.81 359.822C915.818 358.478 915.274 356.99 915.178 355.358H921.946C922.074 356.382 922.57 357.23 923.434 357.902C924.33 358.574 925.434 358.91 926.746 358.91C928.026 358.91 929.018 358.654 929.722 358.142C930.458 357.63 930.826 356.974 930.826 356.174C930.826 355.31 930.378 354.67 929.482 354.254C928.618 353.806 927.226 353.326 925.306 352.814C923.322 352.334 921.69 351.838 920.41 351.326C919.162 350.814 918.074 350.03 917.146 348.974C916.25 347.918 915.802 346.494 915.802 344.702C915.802 343.23 916.218 341.886 917.05 340.67C917.914 339.454 919.13 338.494 920.698 337.79C922.298 337.086 924.17 336.734 926.314 336.734C929.482 336.734 932.01 337.534 933.898 339.134C935.786 340.702 936.826 342.83 937.018 345.518H930.586C930.49 344.462 930.042 343.63 929.242 343.022C928.474 342.382 927.434 342.062 926.122 342.062C924.906 342.062 923.962 342.286 923.29 342.734C922.65 343.182 922.33 343.806 922.33 344.606C922.33 345.502 922.778 346.19 923.674 346.67C924.57 347.118 925.962 347.582 927.85 348.062C929.77 348.542 931.354 349.038 932.602 349.55C933.85 350.062 934.922 350.862 935.818 351.95C936.746 353.006 937.226 354.414 937.258 356.174C937.258 357.71 936.826 359.086 935.962 360.302C935.13 361.518 933.914 362.478 932.314 363.182C930.746 363.854 928.906 364.19 926.794 364.19ZM976.148 363.758L972.5 360.158C969.396 362.942 965.604 364.334 961.124 364.334C958.66 364.334 956.484 363.918 954.596 363.086C952.74 362.222 951.3 361.022 950.276 359.486C949.252 357.918 948.74 356.11 948.74 354.062C948.74 351.854 949.364 349.87 950.612 348.11C951.86 346.35 953.7 344.926 956.132 343.838C955.268 342.782 954.644 341.774 954.26 340.814C953.876 339.822 953.684 338.766 953.684 337.646C953.684 336.11 954.084 334.734 954.884 333.518C955.684 332.27 956.82 331.294 958.292 330.59C959.796 329.886 961.54 329.534 963.524 329.534C965.54 329.534 967.268 329.918 968.708 330.686C970.148 331.454 971.22 332.478 971.924 333.758C972.628 335.038 972.932 336.462 972.836 338.03H966.308C966.34 336.974 966.084 336.174 965.54 335.63C964.996 335.054 964.26 334.766 963.332 334.766C962.436 334.766 961.684 335.038 961.076 335.582C960.5 336.094 960.212 336.766 960.212 337.598C960.212 338.398 960.452 339.198 960.932 339.998C961.412 340.766 962.196 341.726 963.284 342.878L971.732 351.23C971.796 351.166 971.844 351.102 971.876 351.038C971.908 350.974 971.94 350.91 971.972 350.846L974.708 346.286H981.716L978.356 352.19C977.716 353.438 977.028 354.622 976.292 355.742L984.404 363.758H976.148ZM961.316 358.766C963.94 358.766 966.26 357.838 968.276 355.982L960.02 347.822C956.916 349.198 955.364 351.15 955.364 353.678C955.364 355.118 955.908 356.334 956.996 357.326C958.084 358.286 959.524 358.766 961.316 358.766ZM822.32 405.782C825.584 405.782 828.208 406.79 830.192 408.806C832.208 410.79 833.216 413.574 833.216 417.158V432.758H826.496V418.07C826.496 415.99 825.968 414.406 824.912 413.318C823.856 412.198 822.416 411.638 820.592 411.638C818.768 411.638 817.312 412.198 816.224 413.318C815.168 414.406 814.64 415.99 814.64 418.07V432.758H807.92V418.07C807.92 415.99 807.392 414.406 806.336 413.318C805.28 412.198 803.84 411.638 802.016 411.638C800.16 411.638 798.688 412.198 797.6 413.318C796.544 414.406 796.016 415.99 796.016 418.07V432.758H789.296V406.166H796.016V409.382C796.88 408.262 797.984 407.382 799.328 406.742C800.704 406.102 802.208 405.782 803.84 405.782C805.92 405.782 807.776 406.23 809.408 407.126C811.04 407.99 812.304 409.238 813.2 410.87C814.064 409.334 815.312 408.102 816.944 407.174C818.608 406.246 820.4 405.782 822.32 405.782ZM862.393 418.886C862.393 419.846 862.329 420.71 862.201 421.478H842.761C842.921 423.398 843.593 424.902 844.777 425.99C845.961 427.078 847.417 427.622 849.145 427.622C851.641 427.622 853.417 426.55 854.473 424.406H861.721C860.953 426.966 859.481 429.078 857.305 430.742C855.129 432.374 852.457 433.19 849.289 433.19C846.729 433.19 844.425 432.63 842.377 431.51C840.361 430.358 838.777 428.742 837.625 426.662C836.505 424.582 835.945 422.182 835.945 419.462C835.945 416.71 836.505 414.294 837.625 412.214C838.745 410.134 840.313 408.534 842.329 407.414C844.345 406.294 846.665 405.734 849.289 405.734C851.817 405.734 854.073 406.278 856.057 407.366C858.073 408.454 859.625 410.006 860.713 412.022C861.833 414.006 862.393 416.294 862.393 418.886ZM855.433 416.966C855.401 415.238 854.777 413.862 853.561 412.838C852.345 411.782 850.857 411.254 849.097 411.254C847.433 411.254 846.025 411.766 844.873 412.79C843.753 413.782 843.065 415.174 842.809 416.966H855.433ZM890.098 418.886C890.098 419.846 890.034 420.71 889.906 421.478H870.466C870.626 423.398 871.298 424.902 872.482 425.99C873.666 427.078 875.122 427.622 876.85 427.622C879.346 427.622 881.122 426.55 882.178 424.406H889.426C888.658 426.966 887.186 429.078 885.01 430.742C882.834 432.374 880.162 433.19 876.994 433.19C874.434 433.19 872.13 432.63 870.082 431.51C868.066 430.358 866.482 428.742 865.33 426.662C864.21 424.582 863.65 422.182 863.65 419.462C863.65 416.71 864.21 414.294 865.33 412.214C866.45 410.134 868.018 408.534 870.034 407.414C872.05 406.294 874.37 405.734 876.994 405.734C879.522 405.734 881.778 406.278 883.762 407.366C885.778 408.454 887.33 410.006 888.418 412.022C889.538 414.006 890.098 416.294 890.098 418.886ZM883.138 416.966C883.106 415.238 882.482 413.862 881.266 412.838C880.05 411.782 878.562 411.254 876.802 411.254C875.138 411.254 873.73 411.766 872.578 412.79C871.458 413.782 870.77 415.174 870.514 416.966H883.138ZM900.907 411.686V424.55C900.907 425.446 901.115 426.102 901.531 426.518C901.979 426.902 902.715 427.094 903.739 427.094H906.859V432.758H902.635C896.971 432.758 894.139 430.006 894.139 424.502V411.686H890.971V406.166H894.139V399.59H900.907V406.166H906.859V411.686H900.907ZM926.01 410.006C926.874 408.79 928.058 407.782 929.562 406.982C931.098 406.15 932.842 405.734 934.794 405.734C937.066 405.734 939.114 406.294 940.938 407.414C942.794 408.534 944.25 410.134 945.306 412.214C946.394 414.262 946.938 416.646 946.938 419.366C946.938 422.086 946.394 424.502 945.306 426.614C944.25 428.694 942.794 430.31 940.938 431.462C939.114 432.614 937.066 433.19 934.794 433.19C932.842 433.19 931.114 432.79 929.61 431.99C928.138 431.19 926.938 430.182 926.01 428.966V445.43H919.29V406.166H926.01V410.006ZM940.074 419.366C940.074 417.766 939.738 416.39 939.066 415.238C938.426 414.054 937.562 413.158 936.474 412.55C935.418 411.942 934.266 411.638 933.018 411.638C931.802 411.638 930.65 411.958 929.562 412.598C928.506 413.206 927.642 414.102 926.97 415.286C926.33 416.47 926.01 417.862 926.01 419.462C926.01 421.062 926.33 422.454 926.97 423.638C927.642 424.822 928.506 425.734 929.562 426.374C930.65 426.982 931.802 427.286 933.018 427.286C934.266 427.286 935.418 426.966 936.474 426.326C937.562 425.686 938.426 424.774 939.066 423.59C939.738 422.406 940.074 420.998 940.074 419.366ZM974.621 418.886C974.621 419.846 974.557 420.71 974.429 421.478H954.989C955.149 423.398 955.821 424.902 957.005 425.99C958.189 427.078 959.645 427.622 961.373 427.622C963.869 427.622 965.645 426.55 966.701 424.406H973.949C973.181 426.966 971.709 429.078 969.533 430.742C967.357 432.374 964.685 433.19 961.517 433.19C958.957 433.19 956.653 432.63 954.605 431.51C952.589 430.358 951.005 428.742 949.853 426.662C948.733 424.582 948.173 422.182 948.173 419.462C948.173 416.71 948.733 414.294 949.853 412.214C950.973 410.134 952.541 408.534 954.557 407.414C956.573 406.294 958.893 405.734 961.517 405.734C964.045 405.734 966.301 406.278 968.285 407.366C970.301 408.454 971.853 410.006 972.941 412.022C974.061 414.006 974.621 416.294 974.621 418.886ZM967.661 416.966C967.629 415.238 967.005 413.862 965.789 412.838C964.573 411.782 963.085 411.254 961.325 411.254C959.661 411.254 958.253 411.766 957.101 412.79C955.981 413.782 955.293 415.174 955.037 416.966H967.661ZM989.414 433.19C986.854 433.19 984.55 432.63 982.502 431.51C980.454 430.358 978.838 428.742 977.654 426.662C976.502 424.582 975.926 422.182 975.926 419.462C975.926 416.742 976.518 414.342 977.702 412.262C978.918 410.182 980.566 408.582 982.646 407.462C984.726 406.31 987.046 405.734 989.606 405.734C992.166 405.734 994.486 406.31 996.566 407.462C998.646 408.582 1000.28 410.182 1001.46 412.262C1002.68 414.342 1003.29 416.742 1003.29 419.462C1003.29 422.182 1002.66 424.582 1001.41 426.662C1000.2 428.742 998.534 430.358 996.422 431.51C994.342 432.63 992.006 433.19 989.414 433.19ZM989.414 427.334C990.63 427.334 991.766 427.046 992.822 426.47C993.91 425.862 994.774 424.966 995.414 423.782C996.054 422.598 996.374 421.158 996.374 419.462C996.374 416.934 995.702 414.998 994.358 413.654C993.046 412.278 991.43 411.59 989.51 411.59C987.59 411.59 985.974 412.278 984.662 413.654C983.382 414.998 982.742 416.934 982.742 419.462C982.742 421.99 983.366 423.942 984.614 425.318C985.894 426.662 987.494 427.334 989.414 427.334ZM1013.02 410.006C1013.88 408.79 1015.06 407.782 1016.57 406.982C1018.1 406.15 1019.85 405.734 1021.8 405.734C1024.07 405.734 1026.12 406.294 1027.94 407.414C1029.8 408.534 1031.26 410.134 1032.31 412.214C1033.4 414.262 1033.94 416.646 1033.94 419.366C1033.94 422.086 1033.4 424.502 1032.31 426.614C1031.26 428.694 1029.8 430.31 1027.94 431.462C1026.12 432.614 1024.07 433.19 1021.8 433.19C1019.85 433.19 1018.12 432.79 1016.62 431.99C1015.14 431.19 1013.94 430.182 1013.02 428.966V445.43H1006.3V406.166H1013.02V410.006ZM1027.08 419.366C1027.08 417.766 1026.74 416.39 1026.07 415.238C1025.43 414.054 1024.57 413.158 1023.48 412.55C1022.42 411.942 1021.27 411.638 1020.02 411.638C1018.81 411.638 1017.66 411.958 1016.57 412.598C1015.51 413.206 1014.65 414.102 1013.98 415.286C1013.34 416.47 1013.02 417.862 1013.02 419.462C1013.02 421.062 1013.34 422.454 1013.98 423.638C1014.65 424.822 1015.51 425.734 1016.57 426.374C1017.66 426.982 1018.81 427.286 1020.02 427.286C1021.27 427.286 1022.42 426.966 1023.48 426.326C1024.57 425.686 1025.43 424.774 1026.07 423.59C1026.74 422.406 1027.08 420.998 1027.08 419.366ZM1043.63 397.238V432.758H1036.91V397.238H1043.63ZM1073.07 418.886C1073.07 419.846 1073 420.71 1072.87 421.478H1053.43C1053.59 423.398 1054.27 424.902 1055.45 425.99C1056.63 427.078 1058.09 427.622 1059.82 427.622C1062.31 427.622 1064.09 426.55 1065.15 424.406H1072.39C1071.63 426.966 1070.15 429.078 1067.98 430.742C1065.8 432.374 1063.13 433.19 1059.96 433.19C1057.4 433.19 1055.1 432.63 1053.05 431.51C1051.03 430.358 1049.45 428.742 1048.3 426.662C1047.18 424.582 1046.62 422.182 1046.62 419.462C1046.62 416.71 1047.18 414.294 1048.3 412.214C1049.42 410.134 1050.99 408.534 1053 407.414C1055.02 406.294 1057.34 405.734 1059.96 405.734C1062.49 405.734 1064.75 406.278 1066.73 407.366C1068.75 408.454 1070.3 410.006 1071.39 412.022C1072.51 414.006 1073.07 416.294 1073.07 418.886ZM1066.11 416.966C1066.07 415.238 1065.45 413.862 1064.23 412.838C1063.02 411.782 1061.53 411.254 1059.77 411.254C1058.11 411.254 1056.7 411.766 1055.55 412.79C1054.43 413.782 1053.74 415.174 1053.48 416.966H1066.11Z" fill="white"/>
<defs>
<filter id="filter0_d_401_1194" x="594.998" y="504.516" width="120.044" height="121.044" filterUnits="userSpaceOnUse" color-interpolation-filters="sRGB">
<feFlood flood-opacity="0" result="BackgroundImageFix"/>
<feColorMatrix in="SourceAlpha" type="matrix" values="0 0 0 0 0 0 0 0 0 0 0 0 0 0 0 0 0 0 127 0" result="hardAlpha"/>
<feOffset dx="8" dy="9"/>
<feGaussianBlur stdDeviation="2"/>
<feComposite in2="hardAlpha" operator="out"/>
<feColorMatrix type="matrix" values="0 0 0 0 0 0 0 0 0 0 0 0 0 0 0 0 0 0 0.25 0"/>
<feBlend mode="normal" in2="BackgroundImageFix" result="effect1_dropShadow_401_1194"/>
<feBlend mode="normal" in="SourceGraphic" in2="effect1_dropShadow_401_1194" result="shape"/>
</filter>
<filter id="filter1_d_401_1194" x="161.163" y="162.56" width="553.878" height="463" filterUnits="userSpaceOnUse" color-interpolation-filters="sRGB">
<feFlood flood-opacity="0" result="BackgroundImageFix"/>
<feColorMatrix in="SourceAlpha" type="matrix" values="0 0 0 0 0 0 0 0 0 0 0 0 0 0 0 0 0 0 127 0" result="hardAlpha"/>
<feOffset dx="8" dy="9"/>
<feGaussianBlur stdDeviation="2"/>
<feComposite in2="hardAlpha" operator="out"/>
<feColorMatrix type="matrix" values="0 0 0 0 0 0 0 0 0 0 0 0 0 0 0 0 0 0 0.25 0"/>
<feBlend mode="normal" in2="BackgroundImageFix" result="effect1_dropShadow_401_1194"/>
<feBlend mode="normal" in="SourceGraphic" in2="effect1_dropShadow_401_1194" result="shape"/>
</filter>
<filter id="filter2_d_401_1194" x="1170.77" y="504.516" width="120.044" height="121.044" filterUnits="userSpaceOnUse" color-interpolation-filters="sRGB">
<feFlood flood-opacity="0" result="BackgroundImageFix"/>
<feColorMatrix in="SourceAlpha" type="matrix" values="0 0 0 0 0 0 0 0 0 0 0 0 0 0 0 0 0 0 127 0" result="hardAlpha"/>
<feOffset dx="8" dy="9"/>
<feGaussianBlur stdDeviation="2"/>
<feComposite in2="hardAlpha" operator="out"/>
<feColorMatrix type="matrix" values="0 0 0 0 0 0 0 0 0 0 0 0 0 0 0 0 0 0 0.25 0"/>
<feBlend mode="normal" in2="BackgroundImageFix" result="effect1_dropShadow_401_1194"/>
<feBlend mode="normal" in="SourceGraphic" in2="effect1_dropShadow_401_1194" result="shape"/>
</filter>
<filter id="filter3_d_401_1194" x="736.94" y="162.56" width="553.878" height="463" filterUnits="userSpaceOnUse" color-interpolation-filters="sRGB">
<feFlood flood-opacity="0" result="BackgroundImageFix"/>
<feColorMatrix in="SourceAlpha" type="matrix" values="0 0 0 0 0 0 0 0 0 0 0 0 0 0 0 0 0 0 127 0" result="hardAlpha"/>
<feOffset dx="8" dy="9"/>
<feGaussianBlur stdDeviation="2"/>
<feComposite in2="hardAlpha" operator="out"/>
<feColorMatrix type="matrix" values="0 0 0 0 0 0 0 0 0 0 0 0 0 0 0 0 0 0 0.25 0"/>
<feBlend mode="normal" in2="BackgroundImageFix" result="effect1_dropShadow_401_1194"/>
<feBlend mode="normal" in="SourceGraphic" in2="effect1_dropShadow_401_1194" result="shape"/>
</filter>
</defs>
</svg>
